<svg xmlns="http://www.w3.org/2000/svg" viewBox="0 0 100 100">
  <defs>
    <style>
      .circle-bg { fill: #3E7A84; }
      .brick { fill: white; }
    </style>
  </defs>

  <!-- Background circle -->
  <circle cx="50" cy="50" r="48" class="circle-bg"/>

  <!-- Outer ring of bricks (30 bricks) -->
  <g>
    <!-- Bricks arranged in a circle -->
    <rect x="47.5" y="8" width="5" height="8" class="brick" transform="rotate(0 50 50)"/>
    <rect x="47.5" y="8" width="5" height="8" class="brick" transform="rotate(12 50 50)"/>
    <rect x="47.5" y="8" width="5" height="8" class="brick" transform="rotate(24 50 50)"/>
    <rect x="47.5" y="8" width="5" height="8" class="brick" transform="rotate(36 50 50)"/>
    <rect x="47.5" y="8" width="5" height="8" class="brick" transform="rotate(48 50 50)"/>
    <rect x="47.5" y="8" width="5" height="8" class="brick" transform="rotate(60 50 50)"/>
    <rect x="47.5" y="8" width="5" height="8" class="brick" transform="rotate(72 50 50)"/>
    <rect x="47.5" y="8" width="5" height="8" class="brick" transform="rotate(84 50 50)"/>
    <rect x="47.5" y="8" width="5" height="8" class="brick" transform="rotate(96 50 50)"/>
    <rect x="47.5" y="8" width="5" height="8" class="brick" transform="rotate(108 50 50)"/>
    <rect x="47.5" y="8" width="5" height="8" class="brick" transform="rotate(120 50 50)"/>
    <rect x="47.5" y="8" width="5" height="8" class="brick" transform="rotate(132 50 50)"/>
    <rect x="47.5" y="8" width="5" height="8" class="brick" transform="rotate(144 50 50)"/>
    <rect x="47.5" y="8" width="5" height="8" class="brick" transform="rotate(156 50 50)"/>
    <rect x="47.5" y="8" width="5" height="8" class="brick" transform="rotate(168 50 50)"/>
    <rect x="47.5" y="8" width="5" height="8" class="brick" transform="rotate(180 50 50)"/>
    <rect x="47.5" y="8" width="5" height="8" class="brick" transform="rotate(192 50 50)"/>
    <rect x="47.5" y="8" width="5" height="8" class="brick" transform="rotate(204 50 50)"/>
    <rect x="47.5" y="8" width="5" height="8" class="brick" transform="rotate(216 50 50)"/>
    <rect x="47.5" y="8" width="5" height="8" class="brick" transform="rotate(228 50 50)"/>
    <rect x="47.5" y="8" width="5" height="8" class="brick" transform="rotate(240 50 50)"/>
    <rect x="47.5" y="8" width="5" height="8" class="brick" transform="rotate(252 50 50)"/>
    <rect x="47.5" y="8" width="5" height="8" class="brick" transform="rotate(264 50 50)"/>
    <rect x="47.5" y="8" width="5" height="8" class="brick" transform="rotate(276 50 50)"/>
    <rect x="47.5" y="8" width="5" height="8" class="brick" transform="rotate(288 50 50)"/>
    <rect x="47.5" y="8" width="5" height="8" class="brick" transform="rotate(300 50 50)"/>
    <rect x="47.5" y="8" width="5" height="8" class="brick" transform="rotate(312 50 50)"/>
    <rect x="47.5" y="8" width="5" height="8" class="brick" transform="rotate(324 50 50)"/>
    <rect x="47.5" y="8" width="5" height="8" class="brick" transform="rotate(336 50 50)"/>
    <rect x="47.5" y="8" width="5" height="8" class="brick" transform="rotate(348 50 50)"/>
  </g>

  <!-- Inner ring of bricks (24 bricks) -->
  <g>
    <rect x="47.5" y="20" width="5" height="7" class="brick" transform="rotate(0 50 50)"/>
    <rect x="47.5" y="20" width="5" height="7" class="brick" transform="rotate(15 50 50)"/>
    <rect x="47.5" y="20" width="5" height="7" class="brick" transform="rotate(30 50 50)"/>
    <rect x="47.5" y="20" width="5" height="7" class="brick" transform="rotate(45 50 50)"/>
    <rect x="47.5" y="20" width="5" height="7" class="brick" transform="rotate(60 50 50)"/>
    <rect x="47.5" y="20" width="5" height="7" class="brick" transform="rotate(75 50 50)"/>
    <rect x="47.5" y="20" width="5" height="7" class="brick" transform="rotate(90 50 50)"/>
    <rect x="47.5" y="20" width="5" height="7" class="brick" transform="rotate(105 50 50)"/>
    <rect x="47.5" y="20" width="5" height="7" class="brick" transform="rotate(120 50 50)"/>
    <rect x="47.5" y="20" width="5" height="7" class="brick" transform="rotate(135 50 50)"/>
    <rect x="47.5" y="20" width="5" height="7" class="brick" transform="rotate(150 50 50)"/>
    <rect x="47.5" y="20" width="5" height="7" class="brick" transform="rotate(165 50 50)"/>
    <rect x="47.5" y="20" width="5" height="7" class="brick" transform="rotate(180 50 50)"/>
    <rect x="47.5" y="20" width="5" height="7" class="brick" transform="rotate(195 50 50)"/>
    <rect x="47.5" y="20" width="5" height="7" class="brick" transform="rotate(210 50 50)"/>
    <rect x="47.5" y="20" width="5" height="7" class="brick" transform="rotate(225 50 50)"/>
    <rect x="47.5" y="20" width="5" height="7" class="brick" transform="rotate(240 50 50)"/>
    <rect x="47.5" y="20" width="5" height="7" class="brick" transform="rotate(255 50 50)"/>
    <rect x="47.5" y="20" width="5" height="7" class="brick" transform="rotate(270 50 50)"/>
    <rect x="47.5" y="20" width="5" height="7" class="brick" transform="rotate(285 50 50)"/>
    <rect x="47.5" y="20" width="5" height="7" class="brick" transform="rotate(300 50 50)"/>
    <rect x="47.5" y="20" width="5" height="7" class="brick" transform="rotate(315 50 50)"/>
    <rect x="47.5" y="20" width="5" height="7" class="brick" transform="rotate(330 50 50)"/>
    <rect x="47.5" y="20" width="5" height="7" class="brick" transform="rotate(345 50 50)"/>
  </g>
</svg>
